<svg width="128" height="30" viewBox="0 0 128 30" fill="none" xmlns="http://www.w3.org/2000/svg">
<path d="M43.188 23H36.495V7.498H42.521C44.223 7.498 45.5187 7.90433 46.408 8.717C47.2973 9.51433 47.742 10.534 47.742 11.776C47.742 12.5887 47.5273 13.3017 47.098 13.915C46.6687 14.5283 46.109 14.9423 45.419 15.157C47.213 15.6937 48.11 16.905 48.11 18.791C48.11 20.0177 47.6653 21.0297 46.776 21.827C45.902 22.609 44.706 23 43.188 23ZM41.923 10.327H40.037V13.8H41.348C42.268 13.8 42.958 13.6313 43.418 13.294C43.8933 12.9567 44.131 12.512 44.131 11.96C44.131 10.8713 43.395 10.327 41.923 10.327ZM41.923 16.583H40.037V20.171H41.9C43.648 20.171 44.522 19.573 44.522 18.377C44.522 17.181 43.6557 16.583 41.923 16.583ZM61.1158 23H57.7578V21.137C57.1444 22.4403 55.9638 23.092 54.2158 23.092C53.0198 23.092 52.0844 22.7623 51.4098 22.103C50.7504 21.4283 50.4208 20.4393 50.4208 19.136V11.339H53.7788V18.377C53.7788 19.7417 54.3768 20.424 55.5728 20.424C57.0294 20.424 57.7578 19.4503 57.7578 17.503V11.339H61.1158V23ZM67.4656 23H64.1076V6.739H67.4656V13.133C68.2629 11.845 69.4206 11.201 70.9386 11.201C72.3952 11.201 73.5989 11.73 74.5496 12.788C75.5002 13.846 75.9756 15.295 75.9756 17.135C75.9756 18.7757 75.5156 20.1863 74.5956 21.367C73.6909 22.5477 72.4796 23.138 70.9616 23.138C69.4129 23.138 68.2476 22.4863 67.4656 21.183V23ZM67.4656 17.043C67.4656 18.0397 67.7032 18.837 68.1786 19.435C68.6539 20.033 69.2749 20.332 70.0416 20.332C70.7469 20.332 71.3449 20.0483 71.8356 19.481C72.3262 18.8983 72.5716 18.1393 72.5716 17.204C72.5716 16.192 72.3262 15.4023 71.8356 14.835C71.3602 14.2677 70.7699 13.984 70.0646 13.984C69.3592 13.984 68.7459 14.2523 68.2246 14.789C67.7186 15.3257 67.4656 16.077 67.4656 17.043ZM81.7561 23H78.3981V6.739H81.7561V13.133C82.5535 11.845 83.7111 11.201 85.2291 11.201C86.6858 11.201 87.8895 11.73 88.8401 12.788C89.7908 13.846 90.2661 15.295 90.2661 17.135C90.2661 18.7757 89.8061 20.1863 88.8861 21.367C87.9815 22.5477 86.7701 23.138 85.2521 23.138C83.7035 23.138 82.5381 22.4863 81.7561 21.183V23ZM81.7561 17.043C81.7561 18.0397 81.9938 18.837 82.4691 19.435C82.9445 20.033 83.5655 20.332 84.3321 20.332C85.0375 20.332 85.6355 20.0483 86.1261 19.481C86.6168 18.8983 86.8621 18.1393 86.8621 17.204C86.8621 16.192 86.6168 15.4023 86.1261 14.835C85.6508 14.2677 85.0605 13.984 84.3551 13.984C83.6498 13.984 83.0365 14.2523 82.5151 14.789C82.0091 15.3257 81.7561 16.077 81.7561 17.043ZM96.1617 23H92.8037V6.739H96.1617V23ZM108.429 22.333C107.632 22.8543 106.413 23.115 104.772 23.115C102.855 23.115 101.36 22.563 100.287 21.459C99.2291 20.3397 98.7001 18.906 98.7001 17.158C98.7001 15.3027 99.2138 13.8537 100.241 12.811C101.284 11.753 102.564 11.224 104.082 11.224C105.646 11.224 106.88 11.684 107.785 12.604C108.69 13.5087 109.142 14.8657 109.142 16.675C109.142 17.0277 109.081 17.6333 108.958 18.492H102.104C102.334 19.136 102.733 19.6343 103.3 19.987C103.867 20.3397 104.55 20.516 105.347 20.516C106.528 20.516 107.555 20.1863 108.429 19.527V22.333ZM104.22 13.777C103.683 13.777 103.208 13.9763 102.794 14.375C102.38 14.7583 102.104 15.3333 101.966 16.1H106.014V15.824C105.907 14.4593 105.309 13.777 104.22 13.777ZM119.727 19.481C119.727 20.631 119.313 21.5203 118.485 22.149C117.657 22.7777 116.56 23.092 115.196 23.092C113.785 23.092 112.604 22.8543 111.654 22.379V19.389C112.712 20.125 113.831 20.493 115.012 20.493C115.855 20.493 116.277 20.2247 116.277 19.688C116.277 19.55 116.238 19.4197 116.162 19.297C116.085 19.1743 115.955 19.0593 115.771 18.952C115.587 18.8447 115.418 18.7603 115.265 18.699C115.111 18.6223 114.889 18.5227 114.598 18.4C114.306 18.2773 114.084 18.1777 113.931 18.101C112.382 17.365 111.608 16.261 111.608 14.789C111.608 13.6543 112.037 12.7727 112.896 12.144C113.77 11.5153 114.851 11.201 116.139 11.201C117.335 11.201 118.331 11.362 119.129 11.684V14.559C118.316 14.0837 117.365 13.846 116.277 13.846C115.878 13.846 115.571 13.9303 115.357 14.099C115.142 14.2523 115.035 14.4517 115.035 14.697C115.035 14.835 115.073 14.9653 115.15 15.088C115.226 15.2107 115.349 15.3257 115.518 15.433C115.702 15.5403 115.87 15.64 116.024 15.732C116.192 15.8087 116.415 15.9083 116.691 16.031C116.982 16.1537 117.212 16.261 117.381 16.353C118.086 16.721 118.653 17.1503 119.083 17.641C119.512 18.1163 119.727 18.7297 119.727 19.481Z" fill="#2E2E48"/>
<circle cx="18.003" cy="8.30912" r="8.30912" fill="url(#paint0_linear_431_415)"/>
<ellipse cx="14.2304" cy="4.49037" rx="3.28619" ry="1.1386" transform="rotate(-44.1286 14.2304 4.49037)" fill="white" fill-opacity="0.68"/>
<path d="M12.4637 20.0805C12.4637 23.5222 9.67359 26.3123 6.23184 26.3123C2.79009 26.3123 0 23.5222 0 20.0805C0 16.6387 2.79009 13.8486 6.23184 13.8486C9.67359 13.8486 12.4637 16.6387 12.4637 20.0805Z" fill="url(#paint1_linear_431_415)"/>
<ellipse cx="3.74841" cy="17.5622" rx="2.46464" ry="0.853952" transform="rotate(-44.1286 3.74841 17.5622)" fill="white" fill-opacity="0.71"/>
<circle cx="20.0804" cy="24.2349" r="4.84698" fill="url(#paint2_linear_431_415)"/>
<ellipse cx="18.4568" cy="22.5839" rx="1.91694" ry="0.664185" transform="rotate(-44.1286 18.4568 22.5839)" fill="white" fill-opacity="0.76"/>
<defs>
<linearGradient id="paint0_linear_431_415" x1="12.4636" y1="2.76971" x2="24.0479" y2="16.1816" gradientUnits="userSpaceOnUse">
<stop stop-color="#FF8300"/>
<stop offset="0.265" stop-color="#FFCD00"/>
<stop offset="0.58" stop-color="#54C0E8"/>
<stop offset="0.92" stop-color="#0458A9"/>
</linearGradient>
<linearGradient id="paint1_linear_431_415" x1="2.07728" y1="15.9259" x2="10.7655" y2="25.9848" gradientUnits="userSpaceOnUse">
<stop stop-color="#FF8300"/>
<stop offset="0.265" stop-color="#FFCD00"/>
<stop offset="0.58" stop-color="#54C0E8"/>
<stop offset="0.92" stop-color="#0458A9"/>
</linearGradient>
<linearGradient id="paint2_linear_431_415" x1="16.8491" y1="21.0036" x2="23.6066" y2="28.8272" gradientUnits="userSpaceOnUse">
<stop stop-color="#FF8300"/>
<stop offset="0.265" stop-color="#FFCD00"/>
<stop offset="0.58" stop-color="#54C0E8"/>
<stop offset="0.92" stop-color="#0458A9"/>
</linearGradient>
</defs>
</svg>
